<svg width="512" height="305" viewBox="0 0 512 305" fill="none" xmlns="http://www.w3.org/2000/svg">
<g style="mix-blend-mode:plus-darker">
<path d="M256.028 304.845C248.762 304.845 241.964 303.439 235.635 300.626C229.54 298.048 223.446 293.711 217.351 287.617L13.4178 80.5186C4.51038 71.6111 0.0566711 60.7112 0.0566711 47.8189C0.0566711 34.6921 4.62759 23.4406 13.7694 14.0644C22.9113 4.68813 34.0456 0 47.1723 0C60.2991 0 71.9022 5.15694 81.9817 15.4708L256.38 193.385L430.075 15.4708C440.154 5.15694 451.758 0 464.884 0C478.011 0 489.145 4.68813 498.287 14.0644C507.429 23.4406 512 34.6921 512 47.8189C512 60.7112 507.546 71.6111 498.639 80.5186L294.705 287.617C283.454 299.102 270.562 304.845 256.028 304.845Z" fill="#333333"/>
</g>
</svg>
